<svg width="560" height="230" viewBox="0 0 560 230" fill="none" xmlns="http://www.w3.org/2000/svg" role="img" aria-labelledby="title desc">
  <title id="title">Customizable Browser Startpage</title>
  <desc id="desc">Project card for a privacy-first browser startpage.</desc>
  <defs>
    <linearGradient id="bg" x1="0" y1="0" x2="560" y2="230" gradientUnits="userSpaceOnUse">
      <stop stop-color="#0C1022"/>
      <stop offset="1" stop-color="#1A1224"/>
    </linearGradient>
    <linearGradient id="accent" x1="53" y1="35" x2="506" y2="196" gradientUnits="userSpaceOnUse">
      <stop stop-color="#F97316"/>
      <stop offset="0.52" stop-color="#A78BFA"/>
      <stop offset="1" stop-color="#22D3EE"/>
    </linearGradient>
    <style>
      .mono { font-family: "Fira Code", Consolas, monospace; }
      .title { fill: #F8FAFC; font-size: 24px; font-weight: 800; }
      .body { fill: #CBD5E1; font-size: 14px; }
      .pill { fill: #FDBA74; font-size: 12px; font-weight: 700; }
    </style>
  </defs>
  <rect x="1" y="1" width="558" height="228" rx="18" fill="url(#bg)" stroke="#26324D" stroke-width="2"/>
  <rect x="370" y="56" width="142" height="106" rx="16" fill="#0B1222" stroke="#334155"/>
  <rect x="390" y="82" width="42" height="24" rx="8" fill="#F97316"/>
  <rect x="445" y="82" width="42" height="24" rx="8" fill="#A78BFA"/>
  <rect x="390" y="119" width="42" height="24" rx="8" fill="#22D3EE"/>
  <rect x="445" y="119" width="42" height="24" rx="8" fill="#22C55E"/>
  <path d="M353 180L441 132L528 176L438 218L353 180Z" fill="#0B1222" stroke="#334155"/>
  <path d="M371 180L441 144L510 178" stroke="url(#accent)" stroke-width="4" stroke-linecap="round"/>
  <text x="34" y="50" class="mono title">Customizable Browser Startpage</text>
  <text x="34" y="82" class="mono body">A privacy-first homepage replacement with themes,</text>
  <text x="34" y="110" class="mono body">bookmarks, search, GitHub widget, and local storage.</text>
  <rect x="34" y="146" width="66" height="28" rx="14" fill="#1E293B"/>
  <rect x="110" y="146" width="76" height="28" rx="14" fill="#1E293B"/>
  <rect x="196" y="146" width="76" height="28" rx="14" fill="#1E293B"/>
  <rect x="282" y="146" width="72" height="28" rx="14" fill="#1E293B"/>
  <text x="50" y="165" class="mono pill">Vanilla</text>
  <text x="128" y="165" class="mono pill">Privacy</text>
  <text x="214" y="165" class="mono pill">Themes</text>
  <text x="300" y="165" class="mono pill">CSP</text>
  <path d="M34 198H526" stroke="url(#accent)" stroke-width="2"/>
</svg>
